<?xml version="1.0" standalone="no"?>
<!DOCTYPE svg PUBLIC "-//W3C//DTD SVG 20010904//EN"
 "http://www.w3.org/TR/2001/REC-SVG-20010904/DTD/svg10.dtd">
<svg version="1.0" xmlns="http://www.w3.org/2000/svg"
 width="16.000000pt" height="16.000000pt" viewBox="0 0 16.000000 16.000000"
 preserveAspectRatio="xMidYMid meet">
<metadata>
Created by potrace 1.11, written by Peter Selinger 2001-2013
</metadata>
<g transform="translate(0.000000,16.000000) scale(0.006154,-0.006154)"
fill="#000000" stroke="none">
<path d="M1178 2576 c-1 -2 -25 -6 -53 -9 -86 -10 -258 -53 -305 -77 -8 -5
-42 -20 -75 -35 -110 -49 -252 -151 -353 -253 -240 -241 -369 -546 -375 -889
-1 -57 -1 -106 2 -108 2 -2 5 -19 6 -37 7 -93 33 -204 71 -307 24 -65 93 -211
104 -221 3 -3 20 -27 38 -55 17 -27 43 -63 58 -80 14 -16 40 -47 57 -68 18
-21 66 -66 107 -101 184 -155 383 -251 605 -291 22 -4 51 -9 65 -12 41 -8 260
-7 325 1 361 44 689 246 899 554 143 211 213 440 214 705 1 212 -32 369 -116
546 -136 292 -384 528 -680 649 -56 23 -184 60 -229 67 -15 2 -56 9 -90 14
-57 9 -267 14 -275 7z"/>
</g>
</svg>
