<?xml version="1.0" standalone="no"?>
<!DOCTYPE svg PUBLIC "-//W3C//DTD SVG 20010904//EN"
 "http://www.w3.org/TR/2001/REC-SVG-20010904/DTD/svg10.dtd">
<svg version="1.0" xmlns="http://www.w3.org/2000/svg"
 width="16.000000pt" height="16.000000pt" viewBox="0 0 16.000000 16.000000"
 preserveAspectRatio="xMidYMid meet">
<metadata>
Created by potrace 1.11, written by Peter Selinger 2001-2013
</metadata>
<g transform="translate(0.000000,16.000000) scale(0.006226,-0.006226)"
fill="#000000" stroke="none">
<path d="M1095 2344 c-342 -69 -624 -287 -770 -595 -79 -168 -101 -279 -99
-489 3 -194 53 -366 154 -530 56 -91 75 -115 161 -201 109 -109 240 -193 381
-244 127 -46 175 -55 339 -62 106 -4 156 -1 225 12 271 53 501 196 666 414 62
82 149 246 163 311 2 8 10 42 19 75 61 236 32 502 -79 727 -149 302 -423 512
-760 581 -90 19 -309 19 -400 1z"/>
</g>
</svg>
